STARTFONT 2.1
FONT -FontForge-Source Serif Pro-Book-R-Normal--12-120-75-75-P-64-ISO10646-1
SIZE 12 75 75
FONTBOUNDINGBOX 12 13 -1 -3
COMMENT "Generated by fontforge, http://fontforge.sourceforge.net"
COMMENT "(c) 2014 - 2019 Adobe Systems Incorporated (http://www.adobe.com/), with Reserved Font Name `Source'."
STARTPROPERTIES 40
FOUNDRY "FontForge"
FAMILY_NAME "Source Serif Pro"
WEIGHT_NAME "Book"
SLANT "R"
SETWIDTH_NAME "Normal"
ADD_STYLE_NAME ""
PIXEL_SIZE 12
POINT_SIZE 120
RESOLUTION_X 75
RESOLUTION_Y 75
SPACING "P"
AVERAGE_WIDTH 64
CHARSET_REGISTRY "ISO10646"
CHARSET_ENCODING "1"
FONTNAME_REGISTRY ""
CHARSET_COLLECTIONS "ISO8859-5 ISO8859-7 ISO10646-1"
FONT_NAME "SourceSerifPro-Regular"
FACE_NAME "Source Serif Pro"
COPYRIGHT "(c) 2014 - 2019 Adobe Systems Incorporated (http://www.adobe.com/), with Reserved Font Name `Source'."
FONT_VERSION "3.001;hotconv 1.0.111;makeotfexe 2.5.65597"
FONT_ASCENT 10
FONT_DESCENT 2
UNDERLINE_POSITION -1
UNDERLINE_THICKNESS 1
X_HEIGHT 5
CAP_HEIGHT 7
RAW_ASCENT 800
RAW_DESCENT 200
NORM_SPACE 3
RELATIVE_WEIGHT 40
RELATIVE_SETWIDTH 50
SUPERSCRIPT_X 0
SUPERSCRIPT_Y 4
SUPERSCRIPT_SIZE 7
SUBSCRIPT_X 0
SUBSCRIPT_Y 0
SUBSCRIPT_SIZE 7
FIGURE_WIDTH 6
AVG_LOWERCASE_WIDTH 63
AVG_UPPERCASE_WIDTH 79
ENDPROPERTIES
CHARS 126
STARTCHAR space.dup1
ENCODING 32
SWIDTH 233 0
DWIDTH 3 0
BBX 1 1 0 0
BITMAP
00
ENDCHAR
STARTCHAR exclam
ENCODING 33
SWIDTH 289 0
DWIDTH 3 0
BBX 2 8 1 0
BITMAP
80
80
80
80
80
00
00
C0
ENDCHAR
STARTCHAR quotedbl
ENCODING 34
SWIDTH 356 0
DWIDTH 4 0
BBX 4 4 0 5
BITMAP
D0
50
50
50
ENDCHAR
STARTCHAR numbersign
ENCODING 35
SWIDTH 526 0
DWIDTH 6 0
BBX 6 8 0 0
BITMAP
28
28
7C
28
48
FC
48
50
ENDCHAR
STARTCHAR dollar
ENCODING 36
SWIDTH 500 0
DWIDTH 6 0
BBX 5 10 1 -1
BITMAP
20
70
B0
A0
C0
30
38
A8
F0
20
ENDCHAR
STARTCHAR percent
ENCODING 37
SWIDTH 861 0
DWIDTH 10 0
BBX 9 8 1 0
BITMAP
E200
A200
A400
AB00
F500
1480
2500
4300
ENDCHAR
STARTCHAR ampersand
ENCODING 38
SWIDTH 720 0
DWIDTH 9 0
BBX 8 8 0 0
BITMAP
38
48
78
23
52
8A
C4
7B
ENDCHAR
STARTCHAR quotesingle
ENCODING 39
SWIDTH 183 0
DWIDTH 2 0
BBX 2 4 0 5
BITMAP
C0
40
40
40
ENDCHAR
STARTCHAR parenleft
ENCODING 40
SWIDTH 339 0
DWIDTH 4 0
BBX 3 11 1 -2
BITMAP
20
40
40
80
80
80
80
80
80
40
20
ENDCHAR
STARTCHAR parenright
ENCODING 41
SWIDTH 339 0
DWIDTH 4 0
BBX 3 11 0 -2
BITMAP
80
40
40
20
20
20
20
20
20
40
C0
ENDCHAR
STARTCHAR asterisk
ENCODING 42
SWIDTH 439 0
DWIDTH 5 0
BBX 5 5 0 4
BITMAP
20
A8
70
50
50
ENDCHAR
STARTCHAR plus
ENCODING 43
SWIDTH 531 0
DWIDTH 6 0
BBX 6 6 0 1
BITMAP
10
10
10
FC
10
10
ENDCHAR
STARTCHAR comma
ENCODING 44
SWIDTH 300 0
DWIDTH 4 0
BBX 3 5 0 -3
BITMAP
40
60
20
40
80
ENDCHAR
STARTCHAR hyphen.dup2
ENCODING 45
SWIDTH 312 0
DWIDTH 4 0
BBX 3 1 0 3
BITMAP
E0
ENDCHAR
STARTCHAR period
ENCODING 46
SWIDTH 300 0
DWIDTH 4 0
BBX 2 2 1 0
BITMAP
80
C0
ENDCHAR
STARTCHAR slash
ENCODING 47
SWIDTH 330 0
DWIDTH 4 0
BBX 4 11 0 -2
BITMAP
10
10
20
20
20
20
40
40
40
80
80
ENDCHAR
STARTCHAR zero
ENCODING 48
SWIDTH 500 0
DWIDTH 6 0
BBX 6 8 0 0
BITMAP
30
48
48
48
CC
48
48
78
ENDCHAR
STARTCHAR one
ENCODING 49
SWIDTH 500 0
DWIDTH 6 0
BBX 4 8 1 0
BITMAP
E0
20
20
20
20
20
20
F0
ENDCHAR
STARTCHAR two
ENCODING 50
SWIDTH 500 0
DWIDTH 6 0
BBX 5 8 1 0
BITMAP
E0
90
10
10
20
40
80
F8
ENDCHAR
STARTCHAR three
ENCODING 51
SWIDTH 500 0
DWIDTH 6 0
BBX 5 8 1 0
BITMAP
F0
90
10
60
10
18
90
F0
ENDCHAR
STARTCHAR four
ENCODING 52
SWIDTH 500 0
DWIDTH 6 0
BBX 6 8 0 0
BITMAP
08
18
28
48
88
FC
08
08
ENDCHAR
STARTCHAR five
ENCODING 53
SWIDTH 500 0
DWIDTH 6 0
BBX 6 8 0 0
BITMAP
78
40
40
70
08
0C
C8
78
ENDCHAR
STARTCHAR six
ENCODING 54
SWIDTH 500 0
DWIDTH 6 0
BBX 5 8 0 0
BITMAP
18
20
40
70
C8
48
48
78
ENDCHAR
STARTCHAR seven
ENCODING 55
SWIDTH 500 0
DWIDTH 6 0
BBX 5 8 1 0
BITMAP
F8
10
10
10
20
20
40
40
ENDCHAR
STARTCHAR eight
ENCODING 56
SWIDTH 500 0
DWIDTH 6 0
BBX 4 8 1 0
BITMAP
60
90
90
E0
70
90
90
F0
ENDCHAR
STARTCHAR nine
ENCODING 57
SWIDTH 500 0
DWIDTH 6 0
BBX 5 8 0 0
BITMAP
70
48
88
C8
78
08
10
60
ENDCHAR
STARTCHAR colon
ENCODING 58
SWIDTH 300 0
DWIDTH 4 0
BBX 2 6 1 0
BITMAP
80
C0
00
00
80
C0
ENDCHAR
STARTCHAR semicolon
ENCODING 59
SWIDTH 300 0
DWIDTH 4 0
BBX 3 9 0 -3
BITMAP
40
60
00
00
40
60
20
40
80
ENDCHAR
STARTCHAR less
ENCODING 60
SWIDTH 531 0
DWIDTH 6 0
BBX 5 6 1 1
BITMAP
18
20
C0
C0
20
18
ENDCHAR
STARTCHAR equal
ENCODING 61
SWIDTH 531 0
DWIDTH 6 0
BBX 6 2 0 3
BITMAP
FC
FC
ENDCHAR
STARTCHAR greater
ENCODING 62
SWIDTH 531 0
DWIDTH 6 0
BBX 5 6 1 1
BITMAP
80
60
10
18
60
80
ENDCHAR
STARTCHAR question
ENCODING 63
SWIDTH 416 0
DWIDTH 5 0
BBX 3 8 1 0
BITMAP
C0
20
20
60
80
00
00
C0
ENDCHAR
STARTCHAR at
ENCODING 64
SWIDTH 835 0
DWIDTH 10 0
BBX 10 10 0 -2
BITMAP
1F00
2080
4E80
5240
9240
9240
9680
4900
6000
1E00
ENDCHAR
STARTCHAR A
ENCODING 65
SWIDTH 664 0
DWIDTH 8 0
BBX 8 8 0 0
BITMAP
18
18
18
2C
24
5C
46
E7
ENDCHAR
STARTCHAR B
ENCODING 66
SWIDTH 629 0
DWIDTH 8 0
BBX 6 8 1 0
BITMAP
F8
4C
4C
78
48
44
44
F8
ENDCHAR
STARTCHAR C
ENCODING 67
SWIDTH 631 0
DWIDTH 8 0
BBX 6 8 1 0
BITMAP
7C
C4
80
80
80
80
C4
7C
ENDCHAR
STARTCHAR D
ENCODING 68
SWIDTH 710 0
DWIDTH 9 0
BBX 7 8 1 0
BITMAP
F8
44
46
42
42
46
44
F8
ENDCHAR
STARTCHAR E
ENCODING 69
SWIDTH 603 0
DWIDTH 7 0
BBX 6 8 1 0
BITMAP
FC
44
50
70
50
40
44
FC
ENDCHAR
STARTCHAR F
ENCODING 70
SWIDTH 579 0
DWIDTH 7 0
BBX 6 8 1 0
BITMAP
FC
44
48
78
48
40
40
E0
ENDCHAR
STARTCHAR G
ENCODING 71
SWIDTH 682 0
DWIDTH 8 0
BBX 7 8 1 0
BITMAP
7C
C4
80
80
8E
84
C4
7C
ENDCHAR
STARTCHAR H
ENCODING 72
SWIDTH 789 0
DWIDTH 9 0
BBX 8 8 1 0
BITMAP
E7
42
42
7E
42
42
42
E7
ENDCHAR
STARTCHAR I
ENCODING 73
SWIDTH 371 0
DWIDTH 4 0
BBX 3 8 1 0
BITMAP
E0
40
40
40
40
40
40
E0
ENDCHAR
STARTCHAR J
ENCODING 74
SWIDTH 374 0
DWIDTH 4 0
BBX 5 10 -1 -2
BITMAP
38
10
10
10
10
10
10
10
10
E0
ENDCHAR
STARTCHAR K
ENCODING 75
SWIDTH 667 0
DWIDTH 8 0
BBX 7 8 1 0
BITMAP
EE
48
50
70
50
48
4C
EE
ENDCHAR
STARTCHAR L
ENCODING 76
SWIDTH 596 0
DWIDTH 7 0
BBX 6 8 1 0
BITMAP
E0
40
40
40
40
40
44
FC
ENDCHAR
STARTCHAR M
ENCODING 77
SWIDTH 902 0
DWIDTH 11 0
BBX 10 8 0 0
BITMAP
E0C0
2180
5180
5280
5A80
4A80
4C80
E5C0
ENDCHAR
STARTCHAR N
ENCODING 78
SWIDTH 735 0
DWIDTH 9 0
BBX 8 8 0 0
BITMAP
67
61
51
49
4D
45
42
E2
ENDCHAR
STARTCHAR O
ENCODING 79
SWIDTH 707 0
DWIDTH 8 0
BBX 7 8 1 0
BITMAP
78
84
86
82
82
86
84
78
ENDCHAR
STARTCHAR P
ENCODING 80
SWIDTH 589 0
DWIDTH 7 0
BBX 6 8 1 0
BITMAP
F8
4C
44
4C
70
40
40
E0
ENDCHAR
STARTCHAR Q
ENCODING 81
SWIDTH 707 0
DWIDTH 8 0
BBX 7 11 1 -3
BITMAP
78
84
86
82
82
86
84
68
10
10
0C
ENDCHAR
STARTCHAR R
ENCODING 82
SWIDTH 651 0
DWIDTH 8 0
BBX 7 8 1 0
BITMAP
F8
44
44
48
78
48
48
E6
ENDCHAR
STARTCHAR S
ENCODING 83
SWIDTH 512 0
DWIDTH 6 0
BBX 6 8 0 0
BITMAP
78
48
40
70
18
0C
84
F8
ENDCHAR
STARTCHAR T
ENCODING 84
SWIDTH 604 0
DWIDTH 7 0
BBX 7 8 0 0
BITMAP
FE
92
10
10
10
10
10
38
ENDCHAR
STARTCHAR U
ENCODING 85
SWIDTH 727 0
DWIDTH 9 0
BBX 8 8 0 0
BITMAP
F7
62
62
62
62
22
22
3C
ENDCHAR
STARTCHAR V
ENCODING 86
SWIDTH 674 0
DWIDTH 8 0
BBX 8 8 0 0
BITMAP
E7
62
24
24
14
18
18
08
ENDCHAR
STARTCHAR W
ENCODING 87
SWIDTH 962 0
DWIDTH 12 0
BBX 11 8 0 0
BITMAP
EF60
6640
2640
2A40
2940
1980
1180
1080
ENDCHAR
STARTCHAR X
ENCODING 88
SWIDTH 648 0
DWIDTH 8 0
BBX 8 8 0 0
BITMAP
F6
24
38
10
18
28
24
EF
ENDCHAR
STARTCHAR Y
ENCODING 89
SWIDTH 633 0
DWIDTH 8 0
BBX 7 8 0 0
BITMAP
F6
24
24
18
18
10
10
3C
ENDCHAR
STARTCHAR Z
ENCODING 90
SWIDTH 551 0
DWIDTH 7 0
BBX 6 8 0 0
BITMAP
FC
88
08
10
20
20
44
FC
ENDCHAR
STARTCHAR bracketleft
ENCODING 91
SWIDTH 320 0
DWIDTH 4 0
BBX 2 11 1 -2
BITMAP
C0
80
80
80
80
80
80
80
80
80
C0
ENDCHAR
STARTCHAR backslash
ENCODING 92
SWIDTH 330 0
DWIDTH 4 0
BBX 4 11 0 -2
BITMAP
80
80
80
40
40
40
20
20
20
10
10
ENDCHAR
STARTCHAR bracketright
ENCODING 93
SWIDTH 320 0
DWIDTH 4 0
BBX 3 11 0 -2
BITMAP
E0
20
20
20
20
20
20
20
20
20
E0
ENDCHAR
STARTCHAR asciicircum
ENCODING 94
SWIDTH 531 0
DWIDTH 6 0
BBX 4 4 1 2
BITMAP
20
60
90
90
ENDCHAR
STARTCHAR underscore
ENCODING 95
SWIDTH 512 0
DWIDTH 6 0
BBX 6 1 0 0
BITMAP
FC
ENDCHAR
STARTCHAR grave
ENCODING 96
SWIDTH 400 0
DWIDTH 5 0
BBX 2 2 1 7
BITMAP
80
40
ENDCHAR
STARTCHAR a
ENCODING 97
SWIDTH 509 0
DWIDTH 6 0
BBX 5 6 1 0
BITMAP
60
90
30
D0
90
F8
ENDCHAR
STARTCHAR b
ENCODING 98
SWIDTH 577 0
DWIDTH 7 0
BBX 6 9 0 0
BITMAP
C0
40
40
58
64
44
44
44
FC
ENDCHAR
STARTCHAR c
ENCODING 99
SWIDTH 488 0
DWIDTH 6 0
BBX 5 6 0 0
BITMAP
38
48
40
C0
48
78
ENDCHAR
STARTCHAR d
ENCODING 100
SWIDTH 567 0
DWIDTH 7 0
BBX 6 9 1 0
BITMAP
18
08
08
68
98
88
88
88
FC
ENDCHAR
STARTCHAR e
ENCODING 101
SWIDTH 510 0
DWIDTH 6 0
BBX 5 6 1 0
BITMAP
70
90
F8
80
88
F0
ENDCHAR
STARTCHAR f
ENCODING 102
SWIDTH 354 0
DWIDTH 4 0
BBX 5 9 0 0
BITMAP
18
20
40
F0
40
40
40
40
F0
ENDCHAR
STARTCHAR g
ENCODING 103
SWIDTH 518 0
DWIDTH 6 0
BBX 6 9 0 -3
BITMAP
34
48
48
78
40
78
44
84
78
ENDCHAR
STARTCHAR h
ENCODING 104
SWIDTH 601 0
DWIDTH 7 0
BBX 7 9 0 0
BITMAP
C0
40
40
58
64
44
44
44
EE
ENDCHAR
STARTCHAR i
ENCODING 105
SWIDTH 298 0
DWIDTH 4 0
BBX 3 9 0 0
BITMAP
40
60
00
40
C0
40
40
40
E0
ENDCHAR
STARTCHAR j
ENCODING 106
SWIDTH 277 0
DWIDTH 3 0
BBX 4 12 -1 -3
BITMAP
20
30
00
20
60
20
20
20
20
20
20
C0
ENDCHAR
STARTCHAR k
ENCODING 107
SWIDTH 547 0
DWIDTH 7 0
BBX 7 9 0 0
BITMAP
C0
40
40
5C
48
50
78
48
E6
ENDCHAR
STARTCHAR l
ENCODING 108
SWIDTH 298 0
DWIDTH 4 0
BBX 3 9 0 0
BITMAP
C0
40
40
40
40
40
40
40
E0
ENDCHAR
STARTCHAR m
ENCODING 109
SWIDTH 901 0
DWIDTH 11 0
BBX 10 6 0 0
BITMAP
5980
E6C0
4440
4440
4440
EEC0
ENDCHAR
STARTCHAR n
ENCODING 110
SWIDTH 606 0
DWIDTH 7 0
BBX 7 6 0 0
BITMAP
5C
E4
44
44
44
EE
ENDCHAR
STARTCHAR o
ENCODING 111
SWIDTH 549 0
DWIDTH 7 0
BBX 5 6 1 0
BITMAP
70
88
88
88
88
F0
ENDCHAR
STARTCHAR p
ENCODING 112
SWIDTH 583 0
DWIDTH 7 0
BBX 6 9 0 -3
BITMAP
58
E4
44
44
44
7C
40
40
F0
ENDCHAR
STARTCHAR q
ENCODING 113
SWIDTH 557 0
DWIDTH 7 0
BBX 6 9 1 -3
BITMAP
68
98
88
88
88
F8
08
08
1C
ENDCHAR
STARTCHAR r
ENCODING 114
SWIDTH 423 0
DWIDTH 5 0
BBX 5 6 0 0
BITMAP
58
E0
40
40
40
E0
ENDCHAR
STARTCHAR s
ENCODING 115
SWIDTH 434 0
DWIDTH 5 0
BBX 4 6 1 0
BITMAP
E0
90
C0
60
90
E0
ENDCHAR
STARTCHAR t
ENCODING 116
SWIDTH 325 0
DWIDTH 4 0
BBX 4 7 0 0
BITMAP
40
F0
40
40
40
40
70
ENDCHAR
STARTCHAR u
ENCODING 117
SWIDTH 583 0
DWIDTH 7 0
BBX 7 6 0 0
BITMAP
CC
44
44
44
44
7E
ENDCHAR
STARTCHAR v
ENCODING 118
SWIDTH 505 0
DWIDTH 6 0
BBX 6 6 0 0
BITMAP
EC
48
48
28
30
10
ENDCHAR
STARTCHAR w
ENCODING 119
SWIDTH 764 0
DWIDTH 9 0
BBX 9 6 0 0
BITMAP
FD80
4900
4D00
3500
3200
2200
ENDCHAR
STARTCHAR x
ENCODING 120
SWIDTH 526 0
DWIDTH 6 0
BBX 6 6 0 0
BITMAP
EC
68
30
30
58
FC
ENDCHAR
STARTCHAR y
ENCODING 121
SWIDTH 512 0
DWIDTH 6 0
BBX 6 9 0 -3
BITMAP
EC
48
48
28
30
10
10
20
C0
ENDCHAR
STARTCHAR z
ENCODING 122
SWIDTH 456 0
DWIDTH 5 0
BBX 5 6 0 0
BITMAP
78
90
10
20
48
F8
ENDCHAR
STARTCHAR braceleft
ENCODING 123
SWIDTH 344 0
DWIDTH 4 0
BBX 4 11 0 -2
BITMAP
30
40
40
20
20
C0
20
20
40
40
30
ENDCHAR
STARTCHAR bar
ENCODING 124
SWIDTH 251 0
DWIDTH 3 0
BBX 1 12 1 -3
BITMAP
80
80
80
80
80
80
80
80
80
80
80
80
ENDCHAR
STARTCHAR braceright
ENCODING 125
SWIDTH 344 0
DWIDTH 4 0
BBX 4 11 0 -2
BITMAP
C0
20
20
20
40
30
20
40
20
20
C0
ENDCHAR
STARTCHAR asciitilde
ENCODING 126
SWIDTH 531 0
DWIDTH 6 0
BBX 5 2 1 3
BITMAP
C8
B0
ENDCHAR
STARTCHAR space
ENCODING 160
SWIDTH 233 0
DWIDTH 3 0
BBX 1 1 0 0
BITMAP
00
ENDCHAR
STARTCHAR exclamdown
ENCODING 161
SWIDTH 289 0
DWIDTH 3 0
BBX 2 8 1 -2
BITMAP
C0
00
00
80
80
80
80
80
ENDCHAR
STARTCHAR cent
ENCODING 162
SWIDTH 500 0
DWIDTH 6 0
BBX 4 9 1 -1
BITMAP
20
70
B0
A0
A0
A0
F0
20
20
ENDCHAR
STARTCHAR sterling
ENCODING 163
SWIDTH 500 0
DWIDTH 6 0
BBX 6 8 0 0
BITMAP
38
48
40
40
F8
20
40
FC
ENDCHAR
STARTCHAR currency
ENCODING 164
SWIDTH 502 0
DWIDTH 6 0
BBX 6 6 0 1
BITMAP
84
78
48
48
78
84
ENDCHAR
STARTCHAR yen
ENCODING 165
SWIDTH 500 0
DWIDTH 6 0
BBX 6 8 0 0
BITMAP
EC
48
68
30
78
78
20
78
ENDCHAR
STARTCHAR brokenbar
ENCODING 166
SWIDTH 251 0
DWIDTH 3 0
BBX 1 12 1 -3
BITMAP
80
80
80
80
80
00
00
80
80
80
80
80
ENDCHAR
STARTCHAR section
ENCODING 167
SWIDTH 491 0
DWIDTH 6 0
BBX 4 9 1 -1
BITMAP
F0
90
C0
B0
90
D0
30
90
E0
ENDCHAR
STARTCHAR dieresis
ENCODING 168
SWIDTH 400 0
DWIDTH 5 0
BBX 4 2 0 7
BITMAP
50
D0
ENDCHAR
STARTCHAR copyright
ENCODING 169
SWIDTH 755 0
DWIDTH 9 0
BBX 9 8 0 0
BITMAP
3E00
4900
9480
A080
A080
9480
4900
3E00
ENDCHAR
STARTCHAR ordfeminine
ENCODING 170
SWIDTH 351 0
DWIDTH 4 0
BBX 4 4 0 5
BITMAP
60
A0
E0
D0
ENDCHAR
STARTCHAR guillemotleft
ENCODING 171
SWIDTH 487 0
DWIDTH 6 0
BBX 6 4 0 1
BITMAP
2C
D0
50
2C
ENDCHAR
STARTCHAR logicalnot
ENCODING 172
SWIDTH 531 0
DWIDTH 6 0
BBX 6 3 0 2
BITMAP
FC
04
04
ENDCHAR
STARTCHAR hyphen.dup3
ENCODING 173
SWIDTH 312 0
DWIDTH 4 0
BBX 3 1 0 3
BITMAP
E0
ENDCHAR
STARTCHAR registered
ENCODING 174
SWIDTH 459 0
DWIDTH 6 0
BBX 5 5 0 4
BITMAP
30
C8
B8
B8
78
ENDCHAR
STARTCHAR macron
ENCODING 175
SWIDTH 400 0
DWIDTH 5 0
BBX 3 1 1 7
BITMAP
E0
ENDCHAR
STARTCHAR degree
ENCODING 176
SWIDTH 328 0
DWIDTH 4 0
BBX 3 3 0 5
BITMAP
E0
A0
60
ENDCHAR
STARTCHAR plusminus
ENCODING 177
SWIDTH 531 0
DWIDTH 6 0
BBX 6 7 0 0
BITMAP
10
10
10
FC
10
10
FC
ENDCHAR
STARTCHAR two.sups
ENCODING 178
SWIDTH 370 0
DWIDTH 4 0
BBX 3 5 1 5
BITMAP
C0
A0
40
80
E0
ENDCHAR
STARTCHAR three.sups
ENCODING 179
SWIDTH 370 0
DWIDTH 4 0
BBX 3 5 1 5
BITMAP
C0
20
40
20
E0
ENDCHAR
STARTCHAR acute
ENCODING 180
SWIDTH 400 0
DWIDTH 5 0
BBX 2 2 2 7
BITMAP
40
80
ENDCHAR
STARTCHAR mu.dup4
ENCODING 181
SWIDTH 569 0
DWIDTH 7 0
BBX 6 8 1 -2
BITMAP
88
88
88
88
98
EC
80
80
ENDCHAR
STARTCHAR paragraph
ENCODING 182
SWIDTH 598 0
DWIDTH 7 0
BBX 7 10 0 -2
BITMAP
3E
74
F4
F4
74
74
04
04
04
04
ENDCHAR
STARTCHAR periodcentered
ENCODING 183
SWIDTH 300 0
DWIDTH 4 0
BBX 2 2 1 3
BITMAP
80
C0
ENDCHAR
STARTCHAR cedilla
ENCODING 184
SWIDTH 400 0
DWIDTH 5 0
BBX 2 3 1 -3
BITMAP
40
40
C0
ENDCHAR
STARTCHAR one.sups
ENCODING 185
SWIDTH 370 0
DWIDTH 4 0
BBX 3 5 1 5
BITMAP
C0
40
40
40
E0
ENDCHAR
STARTCHAR ordmasculine
ENCODING 186
SWIDTH 377 0
DWIDTH 5 0
BBX 4 4 0 5
BITMAP
70
90
90
70
ENDCHAR
STARTCHAR guillemotright
ENCODING 187
SWIDTH 487 0
DWIDTH 6 0
BBX 5 4 0 1
BITMAP
D0
28
28
D0
ENDCHAR
STARTCHAR onequarter
ENCODING 188
SWIDTH 861 0
DWIDTH 10 0
BBX 8 8 1 0
BITMAP
C2
42
44
49
EB
15
27
61
ENDCHAR
STARTCHAR onehalf
ENCODING 189
SWIDTH 861 0
DWIDTH 10 0
BBX 8 8 1 0
BITMAP
C2
44
44
4F
F5
11
22
47
ENDCHAR
STARTCHAR threequarters
ENCODING 190
SWIDTH 861 0
DWIDTH 10 0
BBX 8 8 1 0
BITMAP
E1
22
64
25
EB
15
27
21
ENDCHAR
ENDFONT
